<?xml version="1.0" encoding="UTF-8" standalone="no"?>
<!DOCTYPE svg PUBLIC "-//W3C//DTD SVG 1.1//EN"
 "http://www.w3.org/Graphics/SVG/1.1/DTD/svg11.dtd">
<!-- Generated by graphviz version 2.40.1 (20161225.0304)
 -->
<!-- Title: %3 Pages: 1 -->
<svg width="581pt" height="218pt"
 viewBox="0.00 0.00 581.13 218.21" xmlns="http://www.w3.org/2000/svg" xmlns:xlink="http://www.w3.org/1999/xlink">
<g id="graph0" class="graph" transform="scale(1 1) rotate(0) translate(4 214.2082)">
<title>%3</title>
<polygon fill="#ffffff" stroke="transparent" points="-4,4 -4,-214.2082 577.1315,-214.2082 577.1315,4 -4,4"/>
<!-- 4 -->
<g id="node1" class="node">
<title>4</title>
<polygon fill="#d3d3d3" stroke="#000000" points="197.0396,-210.2082 177.0396,-210.2082 177.0396,-192.2082 197.0396,-192.2082 197.0396,-210.2082"/>
<text text-anchor="middle" x="187.0396" y="-199.0082" font-family="Times,serif" font-size="9.00" fill="#000000">4</text>
</g>
<!-- 457 -->
<g id="node7" class="node">
<title>457</title>
<ellipse fill="#ffffff" stroke="#000000" cx="104.0396" cy="-137.1163" rx="19.1842" ry="19.1842"/>
<text text-anchor="middle" x="104.0396" y="-134.9163" font-family="Times,serif" font-size="9.00" fill="#000000">457</text>
</g>
<!-- 4&#45;&gt;457 -->
<g id="edge20" class="edge">
<title>4&#45;&gt;457</title>
<path fill="none" stroke="#ff0000" stroke-width=".2776" d="M176.8622,-193.3492C164.6239,-183.8989 143.697,-167.7394 127.4085,-155.1615"/>
<polygon fill="#ff0000" stroke="#ff0000" stroke-width=".2776" points="129.4381,-152.3067 119.3841,-148.9651 125.1598,-157.8472 129.4381,-152.3067"/>
</g>
<!-- 458 -->
<g id="node8" class="node">
<title>458</title>
<ellipse fill="#ffffff" stroke="#000000" cx="48.0396" cy="-137.1163" rx="19.1842" ry="19.1842"/>
<text text-anchor="middle" x="48.0396" y="-134.9163" font-family="Times,serif" font-size="9.00" fill="#000000">458</text>
</g>
<!-- 4&#45;&gt;458 -->
<g id="edge17" class="edge">
<title>4&#45;&gt;458</title>
<path fill="none" stroke="#00ff00" stroke-width=".1614" stroke-dasharray="1,5" d="M176.6459,-196.1255C173.8675,-194.8106 170.8543,-193.4238 168.0396,-192.2082 127.7303,-174.7995 114.8692,-176.7061 76.0396,-156.2082 74.7389,-155.5215 73.4251,-154.7868 72.1133,-154.0202"/>
<polygon fill="#00ff00" stroke="#00ff00" stroke-width=".1614" points="73.9659,-151.0506 63.6432,-148.6643 70.2247,-156.967 73.9659,-151.0506"/>
</g>
<!-- 459 -->
<g id="node9" class="node">
<title>459</title>
<ellipse fill="#ffffff" stroke="#000000" cx="160.0396" cy="-137.1163" rx="19.1842" ry="19.1842"/>
<text text-anchor="middle" x="160.0396" y="-134.9163" font-family="Times,serif" font-size="9.00" fill="#000000">459</text>
</g>
<!-- 4&#45;&gt;459 -->
<g id="edge33" class="edge">
<title>4&#45;&gt;459</title>
<path fill="none" stroke="#00ff00" stroke-width=".2793" stroke-dasharray="1,5" d="M183.1712,-192.0253C180.0772,-184.6809 175.5748,-173.9932 171.3628,-163.9948"/>
<polygon fill="#00ff00" stroke="#00ff00" stroke-width=".2793" points="174.5767,-162.6084 167.4689,-154.7516 168.1257,-165.326 174.5767,-162.6084"/>
</g>
<!-- 460 -->
<g id="node10" class="node">
<title>460</title>
<ellipse fill="#ffffff" stroke="#000000" cx="422.0396" cy="-41.0122" rx="19.1842" ry="19.1842"/>
<text text-anchor="middle" x="422.0396" y="-38.8122" font-family="Times,serif" font-size="9.00" fill="#000000">460</text>
</g>
<!-- 4&#45;&gt;460 -->
<g id="edge13" class="edge">
<title>4&#45;&gt;460</title>
<path fill="none" stroke="#ff0000" stroke-width=".2676" stroke-dasharray="1,5" d="M176.7479,-195.8658C173.9687,-194.553 170.9296,-193.232 168.0396,-192.2082 104.2303,-169.6011 61.8702,-209.4334 20.0396,-156.2082 9.5532,-142.8652 8.8485,-130.7821 20.0396,-118.0244 60.5375,-71.8575 234.1124,-95.4477 294.0396,-82.0244 329.4198,-74.0995 369.0043,-60.6868 394.6567,-51.367"/>
<polygon fill="#ff0000" stroke="#ff0000" stroke-width=".2676" points="395.9174,-54.6326 404.0933,-47.8944 393.4998,-48.0633 395.9174,-54.6326"/>
</g>
<!-- 461 -->
<g id="node11" class="node">
<title>461</title>
<ellipse fill="#ffffff" stroke="#000000" cx="216.0396" cy="-137.1163" rx="19.1842" ry="19.1842"/>
<text text-anchor="middle" x="216.0396" y="-134.9163" font-family="Times,serif" font-size="9.00" fill="#000000">461</text>
</g>
<!-- 4&#45;&gt;461 -->
<g id="edge21" class="edge">
<title>4&#45;&gt;461</title>
<path fill="none" stroke="#00ff00" stroke-width=".2797" d="M191.1946,-192.0253C194.5178,-184.6809 199.3537,-173.9932 203.8778,-163.9948"/>
<polygon fill="#00ff00" stroke="#00ff00" stroke-width=".2797" points="207.1264,-165.3052 208.0601,-154.7516 200.7489,-162.4195 207.1264,-165.3052"/>
</g>
<!-- 462 -->
<g id="node12" class="node">
<title>462</title>
<ellipse fill="#ffffff" stroke="#000000" cx="422.0396" cy="-137.1163" rx="19.1842" ry="19.1842"/>
<text text-anchor="middle" x="422.0396" y="-134.9163" font-family="Times,serif" font-size="9.00" fill="#000000">462</text>
</g>
<!-- 4&#45;&gt;462 -->
<g id="edge39" class="edge">
<title>4&#45;&gt;462</title>
<path fill="none" stroke="#ff0000" stroke-width=".4147" d="M197.3293,-195.8598C200.1085,-194.547 203.1481,-193.2276 206.0396,-192.2082 270.6985,-169.4116 289.7589,-173.7384 356.0396,-156.2082 368.5262,-152.9056 382.2576,-148.9812 393.9469,-145.5518"/>
<polygon fill="#ff0000" stroke="#ff0000" stroke-width=".4147" points="395.0143,-148.8861 403.611,-142.6936 393.0289,-142.1735 395.0143,-148.8861"/>
</g>
<!-- 463 -->
<g id="node13" class="node">
<title>463</title>
<ellipse fill="#ffffff" stroke="#000000" cx="272.0396" cy="-137.1163" rx="19.1842" ry="19.1842"/>
<text text-anchor="middle" x="272.0396" y="-134.9163" font-family="Times,serif" font-size="9.00" fill="#000000">463</text>
</g>
<!-- 4&#45;&gt;463 -->
<g id="edge2" class="edge">
<title>4&#45;&gt;463</title>
<path fill="none" stroke="#00ff00" stroke-width=".122" d="M197.1241,-193.6043C209.6317,-184.1732 231.3615,-167.7885 248.2077,-155.0861"/>
<polygon fill="#00ff00" stroke="#00ff00" stroke-width=".122" points="250.6199,-157.6508 256.4972,-148.8356 246.4055,-152.0616 250.6199,-157.6508"/>
</g>
<!-- 464 -->
<g id="node14" class="node">
<title>464</title>
<ellipse fill="#ffffff" stroke="#000000" cx="328.0396" cy="-137.1163" rx="19.1842" ry="19.1842"/>
<text text-anchor="middle" x="328.0396" y="-134.9163" font-family="Times,serif" font-size="9.00" fill="#000000">464</text>
</g>
<!-- 4&#45;&gt;464 -->
<g id="edge22" class="edge">
<title>4&#45;&gt;464</title>
<path fill="none" stroke="#00ff00" stroke-width=".209" d="M197.4274,-196.1116C200.2059,-194.7969 203.2206,-193.4136 206.0396,-192.2082 247.1739,-174.6196 260.4017,-176.9498 300.0396,-156.2082 301.3429,-155.5262 302.6586,-154.7953 303.972,-154.0317"/>
<polygon fill="#00ff00" stroke="#00ff00" stroke-width=".209" points="305.8566,-156.9811 312.4473,-148.6857 302.122,-151.0605 305.8566,-156.9811"/>
</g>
<!-- 3 -->
<g id="node2" class="node">
<title>3</title>
<polygon fill="#d3d3d3" stroke="#000000" points="159.0396,-210.2082 139.0396,-210.2082 139.0396,-192.2082 159.0396,-192.2082 159.0396,-210.2082"/>
<text text-anchor="middle" x="149.0396" y="-199.0082" font-family="Times,serif" font-size="9.00" fill="#000000">3</text>
</g>
<!-- 3&#45;&gt;457 -->
<g id="edge26" class="edge">
<title>3&#45;&gt;457</title>
<path fill="none" stroke="#00ff00" stroke-width=".1185" stroke-dasharray="1,5" d="M142.5922,-192.0253C136.9544,-183.9956 128.5109,-171.9698 120.9616,-161.2176"/>
<polygon fill="#00ff00" stroke="#00ff00" stroke-width=".1185" points="123.7803,-159.1412 115.1696,-152.9682 118.0514,-163.1636 123.7803,-159.1412"/>
</g>
<!-- 3&#45;&gt;458 -->
<g id="edge43" class="edge">
<title>3&#45;&gt;458</title>
<path fill="none" stroke="#ff0000" stroke-width=".1525" d="M139.0306,-195.2377C124.8805,-186.752 98.2727,-170.6298 76.0396,-156.2082 74.8056,-155.4077 73.5456,-154.5815 72.2764,-153.7422"/>
<polygon fill="#ff0000" stroke="#ff0000" stroke-width=".1525" points="74.1992,-150.8175 63.9461,-148.148 70.2966,-156.6287 74.1992,-150.8175"/>
</g>
<!-- 3&#45;&gt;459 -->
<g id="edge6" class="edge">
<title>3&#45;&gt;459</title>
<path fill="none" stroke="#ff0000" stroke-width=".3428" d="M150.6157,-192.0253C151.7936,-185.1622 153.4725,-175.3797 155.0878,-165.9684"/>
<polygon fill="#ff0000" stroke="#ff0000" stroke-width=".3428" points="158.5467,-166.5054 156.7888,-156.0574 151.6476,-165.3212 158.5467,-166.5054"/>
</g>
<!-- 3&#45;&gt;460 -->
<g id="edge24" class="edge">
<title>3&#45;&gt;460</title>
<path fill="none" stroke="#00ff00" stroke-width=".5" stroke-dasharray="1,5" d="M138.9834,-199.5547C109.4481,-194.4739 24.0311,-178.098 8.0396,-156.2082 -1.9713,-142.5048 -3.186,-130.7517 8.0396,-118.0244 50.4121,-69.984 231.4938,-95.8562 294.0396,-82.0244 329.4411,-74.1955 369.0211,-60.7622 394.6666,-51.4115"/>
<polygon fill="#00ff00" stroke="#00ff00" stroke-width=".5" points="395.933,-54.6749 404.1004,-47.9262 393.5072,-48.1087 395.933,-54.6749"/>
</g>
<!-- 3&#45;&gt;461 -->
<g id="edge44" class="edge">
<title>3&#45;&gt;461</title>
<path fill="none" stroke="#ff0000" stroke-width=".1681" d="M158.6391,-192.0253C167.8999,-183.1665 182.2453,-169.4438 194.2779,-157.9335"/>
<polygon fill="#ff0000" stroke="#ff0000" stroke-width=".1681" points="196.9675,-160.2041 201.7743,-150.7624 192.1287,-155.1458 196.9675,-160.2041"/>
</g>
<!-- 3&#45;&gt;463 -->
<g id="edge10" class="edge">
<title>3&#45;&gt;463</title>
<path fill="none" stroke="#00ff00" stroke-width=".2226" d="M159.1438,-196.4282C183.5087,-184.9011 243.5349,-156.4974 244.0396,-156.2082 245.3158,-155.4768 246.6098,-154.7062 247.9059,-153.911"/>
<polygon fill="#00ff00" stroke="#00ff00" stroke-width=".2226" points="249.8316,-156.8337 256.3244,-148.4615 246.0278,-150.9574 249.8316,-156.8337"/>
</g>
<!-- 3&#45;&gt;464 -->
<g id="edge15" class="edge">
<title>3&#45;&gt;464</title>
<path fill="none" stroke="#00ff00" stroke-width=".3617" stroke-dasharray="1,5" d="M159.351,-195.9198C162.13,-194.6065 165.1641,-193.2719 168.0396,-192.2082 225.0718,-171.1106 244.8257,-181.6875 300.0396,-156.2082 301.4086,-155.5764 302.784,-154.8799 304.1509,-154.1378"/>
<polygon fill="#00ff00" stroke="#00ff00" stroke-width=".3617" points="306.1901,-156.9932 312.8889,-148.7849 302.5334,-151.0242 306.1901,-156.9932"/>
</g>
<!-- 2 -->
<g id="node3" class="node">
<title>2</title>
<polygon fill="#d3d3d3" stroke="#000000" points="235.0396,-210.2082 215.0396,-210.2082 215.0396,-192.2082 235.0396,-192.2082 235.0396,-210.2082"/>
<text text-anchor="middle" x="225.0396" y="-199.0082" font-family="Times,serif" font-size="9.00" fill="#000000">2</text>
</g>
<!-- 2&#45;&gt;457 -->
<g id="edge45" class="edge">
<title>2&#45;&gt;457</title>
<path fill="none" stroke="#00ff00" stroke-width=".1233" stroke-dasharray="1,5" d="M214.7504,-196.3351C192.1984,-185.639 139.8022,-160.6997 132.0396,-156.2082 130.7665,-155.4715 129.475,-154.6966 128.1809,-153.8981"/>
<polygon fill="#00ff00" stroke="#00ff00" stroke-width=".1233" points="130.0621,-150.9465 119.7687,-148.4375 126.2508,-156.818 130.0621,-150.9465"/>
</g>
<!-- 2&#45;&gt;458 -->
<g id="edge25" class="edge">
<title>2&#45;&gt;458</title>
<path fill="none" stroke="#ff0000" stroke-width=".215" d="M214.7255,-195.9274C211.9465,-194.6141 208.9131,-193.2775 206.0396,-192.2082 149.852,-171.2983 130.4263,-181.4345 76.0396,-156.2082 74.6719,-155.5738 73.2975,-154.8751 71.9314,-154.1313"/>
<polygon fill="#ff0000" stroke="#ff0000" stroke-width=".215" points="73.5501,-151.0183 63.1959,-148.7731 69.89,-156.9852 73.5501,-151.0183"/>
</g>
<!-- 2&#45;&gt;459 -->
<g id="edge11" class="edge">
<title>2&#45;&gt;459</title>
<path fill="none" stroke="#ff0000" stroke-width=".1963" stroke-dasharray="1,5" d="M215.7267,-192.0253C206.7424,-183.1665 192.8252,-169.4438 181.1518,-157.9335"/>
<polygon fill="#ff0000" stroke="#ff0000" stroke-width=".1963" points="183.4572,-155.2914 173.8792,-150.7624 178.5424,-160.2759 183.4572,-155.2914"/>
</g>
<!-- 2&#45;&gt;460 -->
<g id="edge29" class="edge">
<title>2&#45;&gt;460</title>
<path fill="none" stroke="#00ff00" stroke-width=".4045" d="M235.3842,-196.0065C238.1629,-194.6926 241.1886,-193.3359 244.0396,-192.2082 292.6598,-172.9752 315.4083,-189.116 356.0396,-156.2082 384.1858,-133.4122 402.646,-95.1975 412.7062,-69.0823"/>
<polygon fill="#00ff00" stroke="#00ff00" stroke-width=".4045" points="416.1052,-69.9799 416.2715,-59.3864 409.5353,-67.5641 416.1052,-69.9799"/>
</g>
<!-- 2&#45;&gt;461 -->
<g id="edge32" class="edge">
<title>2&#45;&gt;461</title>
<path fill="none" stroke="#00ff00" stroke-width=".3373" stroke-dasharray="1,5" d="M223.7502,-192.0253C222.7864,-185.1622 221.4127,-175.3797 220.0912,-165.9684"/>
<polygon fill="#00ff00" stroke="#00ff00" stroke-width=".3373" points="223.5561,-165.4735 218.6994,-156.0574 216.6241,-166.447 223.5561,-165.4735"/>
</g>
<!-- 2&#45;&gt;462 -->
<g id="edge9" class="edge">
<title>2&#45;&gt;462</title>
<path fill="none" stroke="#ff0000" stroke-width=".4543" stroke-dasharray="1,5" d="M235.3347,-195.8751C238.1139,-194.5622 241.1521,-193.2389 244.0396,-192.2082 306.5758,-169.8851 327.4725,-181.0794 389.0396,-156.2082 391.7438,-155.1158 394.4947,-153.8338 397.1961,-152.4599"/>
<polygon fill="#ff0000" stroke="#ff0000" stroke-width=".4543" points="398.9842,-155.4708 406.0505,-147.5765 395.6036,-149.3413 398.9842,-155.4708"/>
</g>
<!-- 2&#45;&gt;463 -->
<g id="edge46" class="edge">
<title>2&#45;&gt;463</title>
<path fill="none" stroke="#00ff00" stroke-width=".3968" d="M231.7736,-192.0253C237.702,-183.941 246.6009,-171.806 254.5264,-160.9983"/>
<polygon fill="#00ff00" stroke="#00ff00" stroke-width=".3968" points="257.5073,-162.8519 260.5985,-152.7181 251.8624,-158.7124 257.5073,-162.8519"/>
</g>
<!-- 2&#45;&gt;464 -->
<g id="edge47" class="edge">
<title>2&#45;&gt;464</title>
<path fill="none" stroke="#00ff00" stroke-width=".3188" stroke-dasharray="1,5" d="M235.3447,-195.2797C249.9084,-186.8441 277.2757,-170.7809 300.0396,-156.2082 301.2784,-155.4151 302.5423,-154.5949 303.8146,-153.7604"/>
<polygon fill="#00ff00" stroke="#00ff00" stroke-width=".3188" points="305.7888,-156.6507 312.1549,-148.1817 301.8969,-150.8323 305.7888,-156.6507"/>
</g>
<!-- 1 -->
<g id="node4" class="node">
<title>1</title>
<polygon fill="#d3d3d3" stroke="#000000" points="273.0396,-210.2082 253.0396,-210.2082 253.0396,-192.2082 273.0396,-192.2082 273.0396,-210.2082"/>
<text text-anchor="middle" x="263.0396" y="-199.0082" font-family="Times,serif" font-size="9.00" fill="#000000">1</text>
</g>
<!-- 1&#45;&gt;457 -->
<g id="edge27" class="edge">
<title>1&#45;&gt;457</title>
<path fill="none" stroke="#00ff00" stroke-width=".2017" stroke-dasharray="1,5" d="M252.6951,-196.0065C249.9163,-194.6926 246.8907,-193.3359 244.0396,-192.2082 195.4195,-172.9752 179.0126,-179.1728 132.0396,-156.2082 130.6852,-155.546 129.3213,-154.8251 127.9635,-154.0638"/>
<polygon fill="#00ff00" stroke="#00ff00" stroke-width=".2017" points="129.5952,-150.957 119.2546,-148.6498 125.8994,-156.9019 129.5952,-150.957"/>
</g>
<!-- 1&#45;&gt;458 -->
<g id="edge38" class="edge">
<title>1&#45;&gt;458</title>
<path fill="none" stroke="#00ff00" stroke-width=".1297" d="M252.7666,-195.8118C249.9872,-194.4994 246.9434,-193.1922 244.0396,-192.2082 171.7178,-167.6998 146.2309,-186.2798 76.0396,-156.2082 74.6538,-155.6144 73.2649,-154.9483 71.8873,-154.2301"/>
<polygon fill="#00ff00" stroke="#00ff00" stroke-width=".1297" points="73.4887,-151.109 63.1155,-148.9534 69.8803,-157.1073 73.4887,-151.109"/>
</g>
<!-- 1&#45;&gt;459 -->
<g id="edge4" class="edge">
<title>1&#45;&gt;459</title>
<path fill="none" stroke="#00ff00" stroke-width=".2679" d="M252.7346,-195.2797C238.1709,-186.8441 210.8036,-170.7809 188.0396,-156.2082 186.8008,-155.4151 185.537,-154.5949 184.2647,-153.7604"/>
<polygon fill="#00ff00" stroke="#00ff00" stroke-width=".2679" points="186.1824,-150.8323 175.9244,-148.1817 182.2905,-156.6507 186.1824,-150.8323"/>
</g>
<!-- 1&#45;&gt;460 -->
<g id="edge19" class="edge">
<title>1&#45;&gt;460</title>
<path fill="none" stroke="#ff0000" stroke-width=".103" stroke-dasharray="1,5" d="M273.3127,-195.8118C276.0921,-194.4994 279.1359,-193.1922 282.0396,-192.2082 354.3615,-167.6998 402.0328,-215.5921 450.0396,-156.2082 471.1285,-130.1215 454.0153,-90.5587 438.7952,-65.2528"/>
<polygon fill="#ff0000" stroke="#ff0000" stroke-width=".103" points="441.6464,-63.2127 433.3478,-56.6261 435.7277,-66.9502 441.6464,-63.2127"/>
</g>
<!-- 1&#45;&gt;461 -->
<g id="edge31" class="edge">
<title>1&#45;&gt;461</title>
<path fill="none" stroke="#ff0000" stroke-width=".1213" d="M256.3057,-192.0253C250.3773,-183.941 241.4784,-171.806 233.5529,-160.9983"/>
<polygon fill="#ff0000" stroke="#ff0000" stroke-width=".1213" points="236.2168,-158.7124 227.4808,-152.7181 230.572,-162.8519 236.2168,-158.7124"/>
</g>
<!-- 1&#45;&gt;462 -->
<g id="edge36" class="edge">
<title>1&#45;&gt;462</title>
<path fill="none" stroke="#ff0000" stroke-width=".244" stroke-dasharray="1,5" d="M273.3946,-196.0327C276.1733,-194.7185 279.1963,-193.3552 282.0396,-192.2082 328.5707,-173.436 343.3184,-176.8745 389.0396,-156.2082 391.554,-155.0717 394.1245,-153.799 396.6663,-152.4648"/>
<polygon fill="#ff0000" stroke="#ff0000" stroke-width=".244" points="398.5587,-155.4171 405.594,-147.4952 395.1541,-149.3008 398.5587,-155.4171"/>
</g>
<!-- 1&#45;&gt;463 -->
<g id="edge7" class="edge">
<title>1&#45;&gt;463</title>
<path fill="none" stroke="#ff0000" stroke-width=".4443" d="M264.3291,-192.0253C265.2929,-185.1622 266.6666,-175.3797 267.9881,-165.9684"/>
<polygon fill="#ff0000" stroke="#ff0000" stroke-width=".4443" points="271.4552,-166.447 269.3799,-156.0574 264.5232,-165.4735 271.4552,-166.447"/>
</g>
<!-- 1&#45;&gt;464 -->
<g id="edge37" class="edge">
<title>1&#45;&gt;464</title>
<path fill="none" stroke="#ff0000" stroke-width=".3931" d="M272.3526,-192.0253C281.3369,-183.1665 295.2541,-169.4438 306.9275,-157.9335"/>
<polygon fill="#ff0000" stroke="#ff0000" stroke-width=".3931" points="309.5369,-160.2759 314.2001,-150.7624 304.622,-155.2914 309.5369,-160.2759"/>
</g>
<!-- Yesterday -->
<g id="node5" class="node">
<title>Yesterday</title>
<polygon fill="#d3d3d3" stroke="#000000" points="335.0396,-210.2082 291.0396,-210.2082 291.0396,-192.2082 335.0396,-192.2082 335.0396,-210.2082"/>
<text text-anchor="middle" x="313.0396" y="-199.0082" font-family="Times,serif" font-size="9.00" fill="#000000">Yesterday</text>
</g>
<!-- Yesterday&#45;&gt;457 -->
<g id="edge35" class="edge">
<title>Yesterday&#45;&gt;457</title>
<path fill="none" stroke="#00ff00" stroke-width=".228" stroke-dasharray="1,5" d="M290.7235,-194.5934C287.8082,-193.7692 284.8566,-192.9547 282.0396,-192.2082 215.7674,-174.6457 194.7246,-183.9758 132.0396,-156.2082 130.6612,-155.5975 129.2781,-154.9179 127.9052,-154.1891"/>
<polygon fill="#00ff00" stroke="#00ff00" stroke-width=".228" points="129.5136,-151.0712 119.1481,-148.8784 125.8838,-157.0566 129.5136,-151.0712"/>
</g>
<!-- Yesterday&#45;&gt;458 -->
<g id="edge41" class="edge">
<title>Yesterday&#45;&gt;458</title>
<path fill="none" stroke="#ff0000" stroke-width=".1947" d="M290.7654,-194.425C287.8432,-193.6283 284.8785,-192.8662 282.0396,-192.2082 191.4973,-171.2199 162.1538,-191.1763 76.0396,-156.2082 74.6427,-155.6409 73.245,-154.9959 71.8604,-154.2945"/>
<polygon fill="#ff0000" stroke="#ff0000" stroke-width=".1947" points="73.4515,-151.1687 63.0664,-149.0709 69.8766,-157.1871 73.4515,-151.1687"/>
</g>
<!-- Yesterday&#45;&gt;459 -->
<g id="edge18" class="edge">
<title>Yesterday&#45;&gt;459</title>
<path fill="none" stroke="#ff0000" stroke-width=".2129" d="M290.9066,-193.9912C260.2133,-183.8551 206.4256,-165.5939 188.0396,-156.2082 186.7296,-155.5394 185.4083,-154.8192 184.0906,-154.0639"/>
<polygon fill="#ff0000" stroke="#ff0000" stroke-width=".2129" points="185.9336,-151.0884 175.601,-148.7456 182.2174,-157.0205 185.9336,-151.0884"/>
</g>
<!-- Yesterday&#45;&gt;460 -->
<g id="edge5" class="edge">
<title>Yesterday&#45;&gt;460</title>
<path fill="none" stroke="#00ff00" stroke-width=".5" stroke-dasharray="1,5" d="M335.2686,-198.6567C377.1172,-193.3469 465.0225,-179.6151 483.0396,-156.2082 506.8077,-125.33 471.0061,-83.8749 445.0162,-60.0404"/>
<polygon fill="#00ff00" stroke="#00ff00" stroke-width=".5" points="447.1479,-57.2528 437.3422,-53.2404 442.5055,-62.4919 447.1479,-57.2528"/>
</g>
<!-- Yesterday&#45;&gt;461 -->
<g id="edge42" class="edge">
<title>Yesterday&#45;&gt;461</title>
<path fill="none" stroke="#00ff00" stroke-width=".4134" d="M298.9761,-192.1564C284.9934,-183.1284 262.9579,-168.825 244.0396,-156.2082 242.8159,-155.392 241.5642,-154.5532 240.3016,-153.704"/>
<polygon fill="#00ff00" stroke="#00ff00" stroke-width=".4134" points="242.2354,-150.7865 231.9929,-148.077 238.3101,-156.5825 242.2354,-150.7865"/>
</g>
<!-- Yesterday&#45;&gt;462 -->
<g id="edge14" class="edge">
<title>Yesterday&#45;&gt;462</title>
<path fill="none" stroke="#00ff00" stroke-width=".5" stroke-dasharray="1,5" d="M328.6567,-192.0253C346.3989,-181.593 375.6126,-164.4153 396.6438,-152.049"/>
<polygon fill="#00ff00" stroke="#00ff00" stroke-width=".5" points="398.533,-154.9984 405.3792,-146.9126 394.9849,-148.9642 398.533,-154.9984"/>
</g>
<!-- Yesterday&#45;&gt;463 -->
<g id="edge16" class="edge">
<title>Yesterday&#45;&gt;463</title>
<path fill="none" stroke="#ff0000" stroke-width=".3274" d="M307.1653,-192.0253C302.1141,-184.1292 294.5909,-172.3688 287.8014,-161.7552"/>
<polygon fill="#ff0000" stroke="#ff0000" stroke-width=".3274" points="290.6782,-159.7573 282.341,-153.2195 284.7815,-163.5295 290.6782,-159.7573"/>
</g>
<!-- Yesterday&#45;&gt;464 -->
<g id="edge28" class="edge">
<title>Yesterday&#45;&gt;464</title>
<path fill="none" stroke="#ff0000" stroke-width=".5" d="M315.1888,-192.0253C316.8069,-185.1114 319.1185,-175.2346 321.3361,-165.7593"/>
<polygon fill="#ff0000" stroke="#ff0000" stroke-width=".5" points="324.7973,-166.3288 323.6683,-155.7943 317.9815,-164.7335 324.7973,-166.3288"/>
</g>
<!-- 826 -->
<g id="node15" class="node">
<title>826</title>
<ellipse fill="#ffffff" stroke="#000000" cx="554.0396" cy="-137.1163" rx="19.1842" ry="19.1842"/>
<text text-anchor="middle" x="554.0396" y="-134.9163" font-family="Times,serif" font-size="9.00" fill="#000000">826</text>
</g>
<!-- Yesterday&#45;&gt;826 -->
<g id="edge1" class="edge">
<title>Yesterday&#45;&gt;826</title>
<path fill="none" stroke="#00ff00" stroke-width=".1956" stroke-dasharray="1,5" d="M335.2471,-198.7085C374.0091,-193.8452 456.0777,-181.3132 521.0396,-156.2082 523.76,-155.1568 526.5216,-153.9018 529.2295,-152.5444"/>
<polygon fill="#00ff00" stroke="#00ff00" stroke-width=".1956" points="531.0085,-155.5606 538.0921,-147.6818 527.6414,-149.4236 531.0085,-155.5606"/>
</g>
<!-- Predict Change -->
<g id="node6" class="node">
<title>Predict Change</title>
<ellipse fill="#add8e6" stroke="#000000" cx="244.0396" cy="-41.0122" rx="41.0244" ry="41.0244"/>
<text text-anchor="middle" x="244.0396" y="-38.8122" font-family="Times,serif" font-size="9.00" fill="#000000">Predict Change</text>
</g>
<!-- 457&#45;&gt;Predict Change -->
<g id="edge34" class="edge">
<title>457&#45;&gt;Predict Change</title>
<path fill="none" stroke="#00ff00" stroke-width=".2292" d="M119.8273,-126.2787C139.5285,-112.7547 173.9919,-89.097 201.6265,-70.127"/>
<polygon fill="#00ff00" stroke="#00ff00" stroke-width=".2292" points="203.696,-72.9517 209.9596,-64.4067 199.7344,-67.1806 203.696,-72.9517"/>
</g>
<!-- 459&#45;&gt;Predict Change -->
<g id="edge3" class="edge">
<title>459&#45;&gt;Predict Change</title>
<path fill="none" stroke="#00ff00" stroke-width=".3054" stroke-dasharray="1,5" d="M172.7974,-122.5201C182.7246,-111.1625 196.9787,-94.8545 210.1321,-79.8057"/>
<polygon fill="#00ff00" stroke="#00ff00" stroke-width=".3054" points="212.9357,-81.9165 216.8814,-72.0838 207.6651,-77.3097 212.9357,-81.9165"/>
</g>
<!-- 461&#45;&gt;Predict Change -->
<g id="edge23" class="edge">
<title>461&#45;&gt;Predict Change</title>
<path fill="none" stroke="#00ff00" stroke-width=".2841" d="M221.4383,-118.5864C223.8228,-110.4022 226.7508,-100.3525 229.6989,-90.2337"/>
<polygon fill="#00ff00" stroke="#00ff00" stroke-width=".2841" points="233.0776,-91.1494 232.5146,-80.5695 226.357,-89.1913 233.0776,-91.1494"/>
</g>
<!-- 462&#45;&gt;Predict Change -->
<g id="edge30" class="edge">
<title>462&#45;&gt;Predict Change</title>
<path fill="none" stroke="#ff0000" stroke-width=".5" stroke-dasharray="1,5" d="M404.9723,-127.9014C378.6609,-113.6956 327.2972,-85.9638 289.6486,-65.6369"/>
<polygon fill="#ff0000" stroke="#ff0000" stroke-width=".5" points="290.8582,-62.3125 280.396,-60.6414 287.5326,-68.4721 290.8582,-62.3125"/>
</g>
<!-- 463&#45;&gt;Predict Change -->
<g id="edge40" class="edge">
<title>463&#45;&gt;Predict Change</title>
<path fill="none" stroke="#00ff00" stroke-width=".1538" d="M266.641,-118.5864C264.2565,-110.4022 261.3285,-100.3525 258.3804,-90.2337"/>
<polygon fill="#00ff00" stroke="#00ff00" stroke-width=".1538" points="261.7223,-89.1913 255.5647,-80.5695 255.0017,-91.1494 261.7223,-89.1913"/>
</g>
<!-- 464&#45;&gt;Predict Change -->
<g id="edge8" class="edge">
<title>464&#45;&gt;Predict Change</title>
<path fill="none" stroke="#ff0000" stroke-width=".5" stroke-dasharray="1,5" d="M315.2819,-122.5201C305.3547,-111.1625 291.1006,-94.8545 277.9472,-79.8057"/>
<polygon fill="#ff0000" stroke="#ff0000" stroke-width=".5" points="280.4141,-77.3097 271.1978,-72.0838 275.1436,-81.9165 280.4141,-77.3097"/>
</g>
<!-- 826&#45;&gt;460 -->
<g id="edge12" class="edge">
<title>826&#45;&gt;460</title>
<path fill="none" stroke="#ff0000" stroke-width=".1069" d="M538.3792,-125.7145C515.4555,-109.0247 472.5843,-77.8118 445.7743,-58.2925"/>
<polygon fill="#ff0000" stroke="#ff0000" stroke-width=".1069" points="447.8242,-55.4556 437.6798,-52.3991 443.704,-61.1146 447.8242,-55.4556"/>
</g>
</g>
</svg>
