<?xml version="1.0" encoding="UTF-8" standalone="no"?>
<!DOCTYPE svg PUBLIC "-//W3C//DTD SVG 1.1//EN"
 "http://www.w3.org/Graphics/SVG/1.1/DTD/svg11.dtd">
<!-- Generated by graphviz version 2.40.1 (20161225.0304)
 -->
<!-- Title: %3 Pages: 1 -->
<svg width="191pt" height="218pt"
 viewBox="0.00 0.00 191.16 218.21" xmlns="http://www.w3.org/2000/svg" xmlns:xlink="http://www.w3.org/1999/xlink">
<g id="graph0" class="graph" transform="scale(1 1) rotate(0) translate(4 214.2082)">
<title>%3</title>
<polygon fill="#ffffff" stroke="transparent" points="-4,4 -4,-214.2082 187.1562,-214.2082 187.1562,4 -4,4"/>
<!-- 4 -->
<g id="node1" class="node">
<title>4</title>
<polygon fill="#d3d3d3" stroke="#000000" points="107.1562,-210.2082 87.1562,-210.2082 87.1562,-192.2082 107.1562,-192.2082 107.1562,-210.2082"/>
<text text-anchor="middle" x="97.1562" y="-199.0082" font-family="Times,serif" font-size="9.00" fill="#000000">4</text>
</g>
<!-- 153 -->
<g id="node7" class="node">
<title>153</title>
<ellipse fill="#ffffff" stroke="#000000" cx="32.1562" cy="-137.1163" rx="19.1842" ry="19.1842"/>
<text text-anchor="middle" x="32.1562" y="-134.9163" font-family="Times,serif" font-size="9.00" fill="#000000">153</text>
</g>
<!-- 4&#45;&gt;153 -->
<g id="edge18" class="edge">
<title>4&#45;&gt;153</title>
<path fill="none" stroke="#ff0000" stroke-width=".1115" stroke-dasharray="1,5" d="M87.8433,-192.0253C78.8589,-183.1665 64.9417,-169.4438 53.2684,-157.9335"/>
<polygon fill="#ff0000" stroke="#ff0000" stroke-width=".1115" points="55.5738,-155.2914 45.9957,-150.7624 50.6589,-160.2759 55.5738,-155.2914"/>
</g>
<!-- 155 -->
<g id="node8" class="node">
<title>155</title>
<ellipse fill="#ffffff" stroke="#000000" cx="88.1562" cy="-137.1163" rx="19.1842" ry="19.1842"/>
<text text-anchor="middle" x="88.1562" y="-134.9163" font-family="Times,serif" font-size="9.00" fill="#000000">155</text>
</g>
<!-- 4&#45;&gt;155 -->
<g id="edge1" class="edge">
<title>4&#45;&gt;155</title>
<path fill="none" stroke="#00ff00" stroke-width=".5" stroke-dasharray="1,5" d="M95.8667,-192.0253C94.9029,-185.1622 93.5293,-175.3797 92.2077,-165.9684"/>
<polygon fill="#00ff00" stroke="#00ff00" stroke-width=".5" points="95.6726,-165.4735 90.816,-156.0574 88.7406,-166.447 95.6726,-165.4735"/>
</g>
<!-- 156 -->
<g id="node9" class="node">
<title>156</title>
<ellipse fill="#ffffff" stroke="#000000" cx="144.1562" cy="-137.1163" rx="19.1842" ry="19.1842"/>
<text text-anchor="middle" x="144.1562" y="-134.9163" font-family="Times,serif" font-size="9.00" fill="#000000">156</text>
</g>
<!-- 4&#45;&gt;156 -->
<g id="edge6" class="edge">
<title>4&#45;&gt;156</title>
<path fill="none" stroke="#00ff00" stroke-width=".4579" d="M103.8901,-192.0253C109.8186,-183.941 118.7174,-171.806 126.6429,-160.9983"/>
<polygon fill="#00ff00" stroke="#00ff00" stroke-width=".4579" points="129.6238,-162.8519 132.715,-152.7181 123.979,-158.7124 129.6238,-162.8519"/>
</g>
<!-- 3 -->
<g id="node2" class="node">
<title>3</title>
<polygon fill="#d3d3d3" stroke="#000000" points="31.1562,-210.2082 11.1562,-210.2082 11.1562,-192.2082 31.1562,-192.2082 31.1562,-210.2082"/>
<text text-anchor="middle" x="21.1562" y="-199.0082" font-family="Times,serif" font-size="9.00" fill="#000000">3</text>
</g>
<!-- Predict Change -->
<g id="node6" class="node">
<title>Predict Change</title>
<ellipse fill="#add8e6" stroke="#000000" cx="88.1562" cy="-41.0122" rx="41.0244" ry="41.0244"/>
<text text-anchor="middle" x="88.1562" y="-38.8122" font-family="Times,serif" font-size="9.00" fill="#000000">Predict Change</text>
</g>
<!-- 3&#45;&gt;Predict Change -->
<g id="edge14" class="edge">
<title>3&#45;&gt;Predict Change</title>
<path fill="none" stroke="#00ff00" stroke-width=".3014" d="M15.8333,-192.0879C7.397,-176.3617 -7.0012,-143.3904 4.1562,-118.0244 12.7033,-98.5927 28.8419,-81.9211 44.7069,-69.1095"/>
<polygon fill="#00ff00" stroke="#00ff00" stroke-width=".3014" points="47.1521,-71.6439 52.9367,-62.7675 42.8793,-66.0992 47.1521,-71.6439"/>
</g>
<!-- 3&#45;&gt;153 -->
<g id="edge16" class="edge">
<title>3&#45;&gt;153</title>
<path fill="none" stroke="#ff0000" stroke-width=".2874" d="M22.7322,-192.0253C23.9101,-185.1622 25.5891,-175.3797 27.2043,-165.9684"/>
<polygon fill="#ff0000" stroke="#ff0000" stroke-width=".2874" points="30.6633,-166.5054 28.9053,-156.0574 23.7641,-165.3212 30.6633,-166.5054"/>
</g>
<!-- 3&#45;&gt;155 -->
<g id="edge2" class="edge">
<title>3&#45;&gt;155</title>
<path fill="none" stroke="#ff0000" stroke-width=".3177" stroke-dasharray="1,5" d="M30.7556,-192.0253C40.0164,-183.1665 54.3618,-169.4438 66.3944,-157.9335"/>
<polygon fill="#ff0000" stroke="#ff0000" stroke-width=".3177" points="69.084,-160.2041 73.8908,-150.7624 64.2453,-155.1458 69.084,-160.2041"/>
</g>
<!-- 3&#45;&gt;156 -->
<g id="edge10" class="edge">
<title>3&#45;&gt;156</title>
<path fill="none" stroke="#00ff00" stroke-width=".1508" d="M31.2604,-196.4282C55.6252,-184.9011 115.6515,-156.4974 116.1562,-156.2082 117.4323,-155.4768 118.7263,-154.7062 120.0224,-153.911"/>
<polygon fill="#00ff00" stroke="#00ff00" stroke-width=".1508" points="121.9482,-156.8337 128.441,-148.4615 118.1443,-150.9574 121.9482,-156.8337"/>
</g>
<!-- 2 -->
<g id="node3" class="node">
<title>2</title>
<polygon fill="#d3d3d3" stroke="#000000" points="69.1562,-210.2082 49.1562,-210.2082 49.1562,-192.2082 69.1562,-192.2082 69.1562,-210.2082"/>
<text text-anchor="middle" x="59.1562" y="-199.0082" font-family="Times,serif" font-size="9.00" fill="#000000">2</text>
</g>
<!-- 2&#45;&gt;153 -->
<g id="edge15" class="edge">
<title>2&#45;&gt;153</title>
<path fill="none" stroke="#ff0000" stroke-width=".4412" stroke-dasharray="1,5" d="M55.2877,-192.0253C52.1937,-184.6809 47.6913,-173.9932 43.4793,-163.9948"/>
<polygon fill="#ff0000" stroke="#ff0000" stroke-width=".4412" points="46.6932,-162.6084 39.5854,-154.7516 40.2423,-165.326 46.6932,-162.6084"/>
</g>
<!-- 2&#45;&gt;155 -->
<g id="edge19" class="edge">
<title>2&#45;&gt;155</title>
<path fill="none" stroke="#ff0000" stroke-width=".182" d="M63.3112,-192.0253C66.6344,-184.6809 71.4703,-173.9932 75.9943,-163.9948"/>
<polygon fill="#ff0000" stroke="#ff0000" stroke-width=".182" points="79.243,-165.3052 80.1766,-154.7516 72.8654,-162.4195 79.243,-165.3052"/>
</g>
<!-- 2&#45;&gt;156 -->
<g id="edge3" class="edge">
<title>2&#45;&gt;156</title>
<path fill="none" stroke="#00ff00" stroke-width=".5" d="M69.2406,-193.6043C81.7483,-184.1732 103.478,-167.7885 120.3242,-155.0861"/>
<polygon fill="#00ff00" stroke="#00ff00" stroke-width=".5" points="122.7364,-157.6508 128.6138,-148.8356 118.522,-152.0616 122.7364,-157.6508"/>
</g>
<!-- 1 -->
<g id="node4" class="node">
<title>1</title>
<polygon fill="#d3d3d3" stroke="#000000" points="183.1562,-210.2082 163.1562,-210.2082 163.1562,-192.2082 183.1562,-192.2082 183.1562,-210.2082"/>
<text text-anchor="middle" x="173.1562" y="-199.0082" font-family="Times,serif" font-size="9.00" fill="#000000">1</text>
</g>
<!-- 1&#45;&gt;155 -->
<g id="edge12" class="edge">
<title>1&#45;&gt;155</title>
<path fill="none" stroke="#ff0000" stroke-width=".1475" stroke-dasharray="1,5" d="M163.0718,-193.6043C150.5641,-184.1732 128.8343,-167.7885 111.9882,-155.0861"/>
<polygon fill="#ff0000" stroke="#ff0000" stroke-width=".1475" points="113.7904,-152.0616 103.6986,-148.8356 109.576,-157.6508 113.7904,-152.0616"/>
</g>
<!-- 1&#45;&gt;156 -->
<g id="edge4" class="edge">
<title>1&#45;&gt;156</title>
<path fill="none" stroke="#00ff00" stroke-width=".357" stroke-dasharray="1,5" d="M169.0012,-192.0253C165.678,-184.6809 160.8421,-173.9932 156.3181,-163.9948"/>
<polygon fill="#00ff00" stroke="#00ff00" stroke-width=".357" points="159.4469,-162.4195 152.1357,-154.7516 153.0694,-165.3052 159.4469,-162.4195"/>
</g>
<!-- 0 -->
<g id="node5" class="node">
<title>0</title>
<polygon fill="#d3d3d3" stroke="#000000" points="145.1562,-210.2082 125.1562,-210.2082 125.1562,-192.2082 145.1562,-192.2082 145.1562,-210.2082"/>
<text text-anchor="middle" x="135.1562" y="-199.0082" font-family="Times,serif" font-size="9.00" fill="#000000">0</text>
</g>
<!-- 0&#45;&gt;Predict Change -->
<g id="edge9" class="edge">
<title>0&#45;&gt;Predict Change</title>
<path fill="none" stroke="#ff0000" stroke-width=".1581" stroke-dasharray="1,5" d="M145.2463,-192.7726C154.2586,-184.5226 166.8338,-171.0616 172.1562,-156.2082 177.8807,-140.2323 178.989,-133.5586 172.1562,-118.0244 163.609,-98.5927 147.4704,-81.9211 131.6054,-69.1095"/>
<polygon fill="#ff0000" stroke="#ff0000" stroke-width=".1581" points="133.433,-66.0992 123.3756,-62.7675 129.1602,-71.6439 133.433,-66.0992"/>
</g>
<!-- 0&#45;&gt;153 -->
<g id="edge8" class="edge">
<title>0&#45;&gt;153</title>
<path fill="none" stroke="#00ff00" stroke-width=".1908" stroke-dasharray="1,5" d="M124.8511,-195.2797C110.2874,-186.8441 82.9201,-170.7809 60.1562,-156.2082 58.9174,-155.4151 57.6535,-154.5949 56.3812,-153.7604"/>
<polygon fill="#00ff00" stroke="#00ff00" stroke-width=".1908" points="58.2989,-150.8323 48.041,-148.1817 54.407,-156.6507 58.2989,-150.8323"/>
</g>
<!-- 0&#45;&gt;155 -->
<g id="edge5" class="edge">
<title>0&#45;&gt;155</title>
<path fill="none" stroke="#00ff00" stroke-width=".2713" stroke-dasharray="1,5" d="M128.4222,-192.0253C122.4938,-183.941 113.5949,-171.806 105.6694,-160.9983"/>
<polygon fill="#00ff00" stroke="#00ff00" stroke-width=".2713" points="108.3334,-158.7124 99.5973,-152.7181 102.6885,-162.8519 108.3334,-158.7124"/>
</g>
<!-- 0&#45;&gt;156 -->
<g id="edge17" class="edge">
<title>0&#45;&gt;156</title>
<path fill="none" stroke="#ff0000" stroke-width=".2637" stroke-dasharray="1,5" d="M136.4457,-192.0253C137.4094,-185.1622 138.7831,-175.3797 140.1047,-165.9684"/>
<polygon fill="#ff0000" stroke="#ff0000" stroke-width=".2637" points="143.5717,-166.447 141.4964,-156.0574 136.6397,-165.4735 143.5717,-166.447"/>
</g>
<!-- 153&#45;&gt;Predict Change -->
<g id="edge11" class="edge">
<title>153&#45;&gt;Predict Change</title>
<path fill="none" stroke="#00ff00" stroke-width=".4194" stroke-dasharray="1,5" d="M41.9106,-120.3762C47.5591,-110.6827 54.9621,-97.978 62.1842,-85.5838"/>
<polygon fill="#00ff00" stroke="#00ff00" stroke-width=".4194" points="65.3728,-87.0635 67.3834,-76.6612 59.3247,-83.5393 65.3728,-87.0635"/>
</g>
<!-- 155&#45;&gt;Predict Change -->
<g id="edge7" class="edge">
<title>155&#45;&gt;Predict Change</title>
<path fill="none" stroke="#00ff00" stroke-width=".158" stroke-dasharray="1,5" d="M88.1562,-117.6682C88.1562,-110.2561 88.1562,-101.4163 88.1562,-92.4189"/>
<polygon fill="#00ff00" stroke="#00ff00" stroke-width=".158" points="91.6563,-92.2613 88.1562,-82.2613 84.6563,-92.2613 91.6563,-92.2613"/>
</g>
<!-- 156&#45;&gt;Predict Change -->
<g id="edge13" class="edge">
<title>156&#45;&gt;Predict Change</title>
<path fill="none" stroke="#00ff00" stroke-width=".3226" stroke-dasharray="1,5" d="M134.4017,-120.3762C128.7533,-110.6827 121.3503,-97.978 114.1281,-85.5838"/>
<polygon fill="#00ff00" stroke="#00ff00" stroke-width=".3226" points="116.9877,-83.5393 108.9289,-76.6612 110.9395,-87.0635 116.9877,-83.5393"/>
</g>
</g>
</svg>
