<?xml version="1.0" encoding="UTF-8" standalone="no"?>
<!DOCTYPE svg PUBLIC "-//W3C//DTD SVG 1.1//EN"
 "http://www.w3.org/Graphics/SVG/1.1/DTD/svg11.dtd">
<!-- Generated by graphviz version 2.40.1 (20161225.0304)
 -->
<!-- Title: %3 Pages: 1 -->
<svg width="389pt" height="287pt"
 viewBox="0.00 0.00 389.45 286.74" xmlns="http://www.w3.org/2000/svg" xmlns:xlink="http://www.w3.org/1999/xlink">
<g id="graph0" class="graph" transform="scale(1 1) rotate(0) translate(4 282.7351)">
<title>%3</title>
<polygon fill="#ffffff" stroke="transparent" points="-4,4 -4,-282.7351 385.4498,-282.7351 385.4498,4 -4,4"/>
<!-- 4 -->
<g id="node1" class="node">
<title>4</title>
<polygon fill="#d3d3d3" stroke="#000000" points="264.0463,-278.7351 244.0463,-278.7351 244.0463,-260.7351 264.0463,-260.7351 264.0463,-278.7351"/>
<text text-anchor="middle" x="254.0463" y="-267.5351" font-family="Times,serif" font-size="9.00" fill="#000000">4</text>
</g>
<!-- 15 -->
<g id="node7" class="node">
<title>15</title>
<ellipse fill="#ffffff" stroke="#000000" cx="210.0463" cy="-205.6432" rx="16.0303" ry="16.0303"/>
<text text-anchor="middle" x="210.0463" y="-203.4432" font-family="Times,serif" font-size="9.00" fill="#000000">15</text>
</g>
<!-- 4&#45;&gt;15 -->
<g id="edge15" class="edge">
<title>4&#45;&gt;15</title>
<path fill="none" stroke="#ff0000" stroke-width=".2346" d="M247.7422,-260.5523C241.8921,-252.0309 232.9525,-239.0092 225.247,-227.7851"/>
<polygon fill="#ff0000" stroke="#ff0000" stroke-width=".2346" points="227.9599,-225.5526 219.4146,-219.2893 222.1889,-229.5145 227.9599,-225.5526"/>
</g>
<!-- 16 -->
<g id="node8" class="node">
<title>16</title>
<ellipse fill="#ffffff" stroke="#000000" cx="115.0463" cy="-134.2878" rx="16.0303" ry="16.0303"/>
<text text-anchor="middle" x="115.0463" y="-132.0878" font-family="Times,serif" font-size="9.00" fill="#000000">16</text>
</g>
<!-- 4&#45;&gt;16 -->
<g id="edge27" class="edge">
<title>4&#45;&gt;16</title>
<path fill="none" stroke="#00ff00" stroke-width=".5" d="M262.8177,-260.7112C277.4368,-244.5577 303.5347,-210.1834 286.0463,-186.5513 268.7248,-163.1448 184.9594,-145.977 141.4348,-138.4741"/>
<polygon fill="#00ff00" stroke="#00ff00" stroke-width=".5" points="141.7419,-134.9769 131.3011,-136.7769 140.5856,-141.8808 141.7419,-134.9769"/>
</g>
<!-- 17 -->
<g id="node9" class="node">
<title>17</title>
<ellipse fill="#ffffff" stroke="#000000" cx="349.0463" cy="-205.6432" rx="16.0303" ry="16.0303"/>
<text text-anchor="middle" x="349.0463" y="-203.4432" font-family="Times,serif" font-size="9.00" fill="#000000">17</text>
</g>
<!-- 4&#45;&gt;17 -->
<g id="edge21" class="edge">
<title>4&#45;&gt;17</title>
<path fill="none" stroke="#ff0000" stroke-width=".285" stroke-dasharray="1,5" d="M264.2129,-262.8761C279.0731,-252.8507 307.1025,-233.9406 326.8671,-220.6064"/>
<polygon fill="#ff0000" stroke="#ff0000" stroke-width=".285" points="328.9572,-223.4184 335.2896,-214.9242 325.0422,-217.6155 328.9572,-223.4184"/>
</g>
<!-- 18 -->
<g id="node10" class="node">
<title>18</title>
<ellipse fill="#ffffff" stroke="#000000" cx="261.0463" cy="-205.6432" rx="16.0303" ry="16.0303"/>
<text text-anchor="middle" x="261.0463" y="-203.4432" font-family="Times,serif" font-size="9.00" fill="#000000">18</text>
</g>
<!-- 4&#45;&gt;18 -->
<g id="edge14" class="edge">
<title>4&#45;&gt;18</title>
<path fill="none" stroke="#ff0000" stroke-width=".3671" d="M255.0492,-260.5523C255.8629,-253.1023 257.0522,-242.2125 258.1576,-232.0915"/>
<polygon fill="#ff0000" stroke="#ff0000" stroke-width=".3671" points="261.6534,-232.3199 259.2599,-221.999 254.6948,-231.5598 261.6534,-232.3199"/>
</g>
<!-- 19 -->
<g id="node11" class="node">
<title>19</title>
<ellipse fill="#ffffff" stroke="#000000" cx="159.0463" cy="-205.6432" rx="16.0303" ry="16.0303"/>
<text text-anchor="middle" x="159.0463" y="-203.4432" font-family="Times,serif" font-size="9.00" fill="#000000">19</text>
</g>
<!-- 4&#45;&gt;19 -->
<g id="edge24" class="edge">
<title>4&#45;&gt;19</title>
<path fill="none" stroke="#ff0000" stroke-width=".4694" stroke-dasharray="1,5" d="M243.6405,-263.2023C230.0289,-254.5994 205.505,-238.9017 185.0463,-224.7351 183.5902,-223.7268 182.0972,-222.6763 180.5984,-221.6094"/>
<polygon fill="#ff0000" stroke="#ff0000" stroke-width=".4694" points="182.3214,-218.5355 172.171,-215.499 178.2123,-224.2026 182.3214,-218.5355"/>
</g>
<!-- 3 -->
<g id="node2" class="node">
<title>3</title>
<polygon fill="#d3d3d3" stroke="#000000" points="302.0463,-278.7351 282.0463,-278.7351 282.0463,-260.7351 302.0463,-260.7351 302.0463,-278.7351"/>
<text text-anchor="middle" x="292.0463" y="-267.5351" font-family="Times,serif" font-size="9.00" fill="#000000">3</text>
</g>
<!-- 3&#45;&gt;15 -->
<g id="edge10" class="edge">
<title>3&#45;&gt;15</title>
<path fill="none" stroke="#00ff00" stroke-width=".3058" stroke-dasharray="1,5" d="M281.9915,-261.8761C269.3179,-251.9704 247.2132,-234.6931 230.8404,-221.896"/>
<polygon fill="#00ff00" stroke="#00ff00" stroke-width=".3058" points="232.9156,-219.0758 222.8813,-215.6751 228.6048,-224.591 232.9156,-219.0758"/>
</g>
<!-- 3&#45;&gt;16 -->
<g id="edge8" class="edge">
<title>3&#45;&gt;16</title>
<path fill="none" stroke="#00ff00" stroke-width=".2306" stroke-dasharray="1,5" d="M302.1655,-267.6672C320.3778,-263.3387 358.2477,-251.4262 374.0463,-224.7351 382.6905,-210.131 384.7941,-199.6846 374.0463,-186.5513 344.8509,-150.8761 201.8488,-139.0036 141.7398,-135.5486"/>
<polygon fill="#00ff00" stroke="#00ff00" stroke-width=".2306" points="141.701,-132.0415 131.5269,-134.9976 141.3238,-139.0313 141.701,-132.0415"/>
</g>
<!-- 3&#45;&gt;17 -->
<g id="edge6" class="edge">
<title>3&#45;&gt;17</title>
<path fill="none" stroke="#00ff00" stroke-width=".3896" stroke-dasharray="1,5" d="M300.213,-260.5523C308.3167,-251.4403 320.9968,-237.1826 331.405,-225.4794"/>
<polygon fill="#00ff00" stroke="#00ff00" stroke-width=".3896" points="334.1333,-227.6783 338.1635,-217.88 328.9026,-223.0264 334.1333,-227.6783"/>
</g>
<!-- 3&#45;&gt;18 -->
<g id="edge28" class="edge">
<title>3&#45;&gt;18</title>
<path fill="none" stroke="#00ff00" stroke-width=".3198" d="M287.6047,-260.5523C283.7594,-252.602 278.0192,-240.7345 272.8583,-230.0642"/>
<polygon fill="#00ff00" stroke="#00ff00" stroke-width=".3198" points="275.8574,-228.2266 268.3524,-220.7484 269.5558,-231.2746 275.8574,-228.2266"/>
</g>
<!-- 3&#45;&gt;19 -->
<g id="edge9" class="edge">
<title>3&#45;&gt;19</title>
<path fill="none" stroke="#00ff00" stroke-width=".3037" d="M282.0351,-264.8688C279.1487,-263.4996 275.9852,-262.0311 273.0463,-260.7351 234.3818,-243.684 221.9086,-245.3954 185.0463,-224.7351 183.5013,-223.8692 181.9413,-222.9259 180.3935,-221.9375"/>
<polygon fill="#00ff00" stroke="#00ff00" stroke-width=".3037" points="182.0633,-218.8359 171.8526,-216.0088 178.0716,-224.5863 182.0633,-218.8359"/>
</g>
<!-- 2 -->
<g id="node3" class="node">
<title>2</title>
<polygon fill="#d3d3d3" stroke="#000000" points="175.0463,-278.7351 155.0463,-278.7351 155.0463,-260.7351 175.0463,-260.7351 175.0463,-278.7351"/>
<text text-anchor="middle" x="165.0463" y="-267.5351" font-family="Times,serif" font-size="9.00" fill="#000000">2</text>
</g>
<!-- Predict Change -->
<g id="node6" class="node">
<title>Predict Change</title>
<ellipse fill="#add8e6" stroke="#000000" cx="159.0463" cy="-41.0122" rx="41.0244" ry="41.0244"/>
<text text-anchor="middle" x="159.0463" y="-38.8122" font-family="Times,serif" font-size="9.00" fill="#000000">Predict Change</text>
</g>
<!-- 2&#45;&gt;Predict Change -->
<g id="edge22" class="edge">
<title>2&#45;&gt;Predict Change</title>
<path fill="none" stroke="#00ff00" stroke-width=".383" stroke-dasharray="1,5" d="M154.7094,-264.514C151.9306,-263.2002 148.9029,-261.8485 146.0463,-260.7351 95.7503,-241.1317 62.064,-268.1958 30.0463,-224.7351 -10.2448,-170.0441 64.1265,-104.6602 115.7022,-68.4961"/>
<polygon fill="#00ff00" stroke="#00ff00" stroke-width=".383" points="117.8236,-71.285 124.0802,-62.7349 113.8572,-65.5172 117.8236,-71.285"/>
</g>
<!-- 2&#45;&gt;15 -->
<g id="edge12" class="edge">
<title>2&#45;&gt;15</title>
<path fill="none" stroke="#00ff00" stroke-width=".1333" d="M171.4937,-260.5523C177.4767,-252.0309 186.6194,-239.0092 194.5001,-227.7851"/>
<polygon fill="#00ff00" stroke="#00ff00" stroke-width=".1333" points="197.5833,-229.4847 200.4651,-219.2893 191.8543,-225.4623 197.5833,-229.4847"/>
</g>
<!-- 2&#45;&gt;16 -->
<g id="edge1" class="edge">
<title>2&#45;&gt;16</title>
<path fill="none" stroke="#ff0000" stroke-width=".2107" stroke-dasharray="1,5" d="M154.6891,-264.5651C151.9104,-263.2509 148.8879,-261.8862 146.0463,-260.7351 99.9323,-242.0547 69.0238,-265.1796 40.0463,-224.7351 30.1623,-210.9399 32.1931,-201.5955 40.0463,-186.5513 50.5804,-166.3711 72.8554,-152.3974 90.4072,-144.0105"/>
<polygon fill="#ff0000" stroke="#ff0000" stroke-width=".2107" points="91.8626,-147.1938 99.5678,-139.922 89.0096,-140.8016 91.8626,-147.1938"/>
</g>
<!-- 2&#45;&gt;17 -->
<g id="edge13" class="edge">
<title>2&#45;&gt;17</title>
<path fill="none" stroke="#00ff00" stroke-width=".1907" d="M175.201,-266.1979C203.3295,-256.4 282.8781,-228.6912 323.8963,-214.4036"/>
<polygon fill="#00ff00" stroke="#00ff00" stroke-width=".1907" points="325.1476,-217.674 333.4398,-211.0793 322.8449,-211.0636 325.1476,-217.674"/>
</g>
<!-- 2&#45;&gt;18 -->
<g id="edge11" class="edge">
<title>2&#45;&gt;18</title>
<path fill="none" stroke="#00ff00" stroke-width=".2193" stroke-dasharray="1,5" d="M175.1433,-263.5188C188.8653,-255.0088 214.0941,-239.1418 235.0463,-224.7351 236.5056,-223.7316 238.0012,-222.6847 239.5018,-221.6204"/>
<polygon fill="#00ff00" stroke="#00ff00" stroke-width=".2193" points="241.8859,-224.2154 247.9334,-215.5161 237.7809,-218.5454 241.8859,-224.2154"/>
</g>
<!-- 2&#45;&gt;19 -->
<g id="edge19" class="edge">
<title>2&#45;&gt;19</title>
<path fill="none" stroke="#ff0000" stroke-width=".1066" d="M164.1866,-260.5523C163.4892,-253.1023 162.4697,-242.2125 161.5222,-232.0915"/>
<polygon fill="#ff0000" stroke="#ff0000" stroke-width=".1066" points="164.9944,-231.6292 160.5774,-221.999 158.0248,-232.2817 164.9944,-231.6292"/>
</g>
<!-- 731 -->
<g id="node12" class="node">
<title>731</title>
<ellipse fill="#ffffff" stroke="#000000" cx="68.0463" cy="-205.6432" rx="19.1842" ry="19.1842"/>
<text text-anchor="middle" x="68.0463" y="-203.4432" font-family="Times,serif" font-size="9.00" fill="#000000">731</text>
</g>
<!-- 2&#45;&gt;731 -->
<g id="edge31" class="edge">
<title>2&#45;&gt;731</title>
<path fill="none" stroke="#00ff00" stroke-width=".4353" d="M155.0309,-263.1175C140.4417,-253.4778 112.8861,-235.2707 92.6855,-221.9233"/>
<polygon fill="#00ff00" stroke="#00ff00" stroke-width=".4353" points="94.5393,-218.9532 84.2665,-216.3606 90.6803,-224.7935 94.5393,-218.9532"/>
</g>
<!-- 1 -->
<g id="node4" class="node">
<title>1</title>
<polygon fill="#d3d3d3" stroke="#000000" points="137.0463,-278.7351 117.0463,-278.7351 117.0463,-260.7351 137.0463,-260.7351 137.0463,-278.7351"/>
<text text-anchor="middle" x="127.0463" y="-267.5351" font-family="Times,serif" font-size="9.00" fill="#000000">1</text>
</g>
<!-- 1&#45;&gt;15 -->
<g id="edge26" class="edge">
<title>1&#45;&gt;15</title>
<path fill="none" stroke="#00ff00" stroke-width=".2913" d="M137.2237,-261.8761C150.0518,-251.9704 172.4261,-234.6931 188.9986,-221.896"/>
<polygon fill="#00ff00" stroke="#00ff00" stroke-width=".2913" points="191.279,-224.5572 197.0547,-215.6751 187.0007,-219.0168 191.279,-224.5572"/>
</g>
<!-- 1&#45;&gt;16 -->
<g id="edge16" class="edge">
<title>1&#45;&gt;16</title>
<path fill="none" stroke="#ff0000" stroke-width=".5" d="M116.9819,-267.5006C90.5265,-261.403 20.1633,-243.663 7.0463,-224.7351 -2.6201,-210.7865 -1.9689,-200.9293 7.0463,-186.5513 24.844,-158.1665 62.9093,-144.8187 88.7494,-138.8174"/>
<polygon fill="#ff0000" stroke="#ff0000" stroke-width=".5" points="89.5833,-142.2187 98.6487,-136.7352 88.1424,-135.3686 89.5833,-142.2187"/>
</g>
<!-- 1&#45;&gt;19 -->
<g id="edge30" class="edge">
<title>1&#45;&gt;19</title>
<path fill="none" stroke="#ff0000" stroke-width=".143" stroke-dasharray="1,5" d="M131.6311,-260.5523C135.6945,-252.4138 141.8074,-240.1704 147.2306,-229.3085"/>
<polygon fill="#ff0000" stroke="#ff0000" stroke-width=".143" points="150.4143,-230.7671 151.75,-220.2568 144.1515,-227.6402 150.4143,-230.7671"/>
</g>
<!-- 0 -->
<g id="node5" class="node">
<title>0</title>
<polygon fill="#d3d3d3" stroke="#000000" points="220.0463,-278.7351 200.0463,-278.7351 200.0463,-260.7351 220.0463,-260.7351 220.0463,-278.7351"/>
<text text-anchor="middle" x="210.0463" y="-267.5351" font-family="Times,serif" font-size="9.00" fill="#000000">0</text>
</g>
<!-- 0&#45;&gt;15 -->
<g id="edge2" class="edge">
<title>0&#45;&gt;15</title>
<path fill="none" stroke="#00ff00" stroke-width=".3546" d="M210.0463,-260.5523C210.0463,-253.1023 210.0463,-242.2125 210.0463,-232.0915"/>
<polygon fill="#00ff00" stroke="#00ff00" stroke-width=".3546" points="213.5464,-231.9989 210.0463,-221.999 206.5464,-231.999 213.5464,-231.9989"/>
</g>
<!-- 0&#45;&gt;16 -->
<g id="edge4" class="edge">
<title>0&#45;&gt;16</title>
<path fill="none" stroke="#00ff00" stroke-width=".1663" stroke-dasharray="1,5" d="M199.8323,-266.682C183.2495,-261.1699 150.6558,-247.9207 134.0463,-224.7351 120.7837,-206.2216 116.387,-180.4343 115.102,-161.1296"/>
<polygon fill="#00ff00" stroke="#00ff00" stroke-width=".1663" points="118.5883,-160.7304 114.6664,-150.8882 111.5946,-161.0279 118.5883,-160.7304"/>
</g>
<!-- 0&#45;&gt;17 -->
<g id="edge25" class="edge">
<title>0&#45;&gt;17</title>
<path fill="none" stroke="#ff0000" stroke-width=".1893" stroke-dasharray="1,5" d="M220.4939,-264.9178C242.4847,-254.7779 294.0476,-231.0027 324.7709,-216.8364"/>
<polygon fill="#ff0000" stroke="#ff0000" stroke-width=".1893" points="326.3342,-219.9698 333.9498,-212.6041 323.4031,-213.613 326.3342,-219.9698"/>
</g>
<!-- 0&#45;&gt;18 -->
<g id="edge29" class="edge">
<title>0&#45;&gt;18</title>
<path fill="none" stroke="#00ff00" stroke-width=".1511" stroke-dasharray="1,5" d="M217.3533,-260.5523C224.357,-251.7508 235.181,-238.1481 244.3033,-226.6841"/>
<polygon fill="#00ff00" stroke="#00ff00" stroke-width=".1511" points="247.0781,-228.8181 250.566,-218.8138 241.6006,-224.4595 247.0781,-228.8181"/>
</g>
<!-- 0&#45;&gt;19 -->
<g id="edge3" class="edge">
<title>0&#45;&gt;19</title>
<path fill="none" stroke="#ff0000" stroke-width=".158" stroke-dasharray="1,5" d="M202.7392,-260.5523C195.7356,-251.7508 184.9115,-238.1481 175.7893,-226.6841"/>
<polygon fill="#ff0000" stroke="#ff0000" stroke-width=".158" points="178.4919,-224.4595 169.5266,-218.8138 173.0145,-228.8181 178.4919,-224.4595"/>
</g>
<!-- 15&#45;&gt;Predict Change -->
<g id="edge20" class="edge">
<title>15&#45;&gt;Predict Change</title>
<path fill="none" stroke="#00ff00" stroke-width=".2325" d="M205.1562,-189.8577C198.0991,-167.0771 184.7519,-123.9915 174.2265,-90.0149"/>
<polygon fill="#00ff00" stroke="#00ff00" stroke-width=".2325" points="177.5032,-88.7641 171.2008,-80.2477 170.8167,-90.8356 177.5032,-88.7641"/>
</g>
<!-- 16&#45;&gt;Predict Change -->
<g id="edge7" class="edge">
<title>16&#45;&gt;Predict Change</title>
<path fill="none" stroke="#00ff00" stroke-width=".2442" d="M122.1156,-119.3015C126.2177,-110.6056 131.6309,-99.13 137.0443,-87.6541"/>
<polygon fill="#00ff00" stroke="#00ff00" stroke-width=".2442" points="140.2599,-89.0412 141.3608,-78.5037 133.9289,-86.0547 140.2599,-89.0412"/>
</g>
<!-- 17&#45;&gt;Predict Change -->
<g id="edge18" class="edge">
<title>17&#45;&gt;Predict Change</title>
<path fill="none" stroke="#ff0000" stroke-width=".3039" d="M336.5798,-194.8413C308.9112,-170.867 241.398,-112.3682 198.0576,-74.8146"/>
<polygon fill="#ff0000" stroke="#ff0000" stroke-width=".3039" points="200.1109,-71.9627 190.2613,-68.0593 195.5269,-77.253 200.1109,-71.9627"/>
</g>
<!-- 19&#45;&gt;Predict Change -->
<g id="edge5" class="edge">
<title>19&#45;&gt;Predict Change</title>
<path fill="none" stroke="#ff0000" stroke-width=".1731" d="M159.0463,-189.2559C159.0463,-166.8492 159.0463,-125.634 159.0463,-92.339"/>
<polygon fill="#ff0000" stroke="#ff0000" stroke-width=".1731" points="162.5464,-92.2899 159.0463,-82.29 155.5464,-92.29 162.5464,-92.2899"/>
</g>
<!-- 19&#45;&gt;16 -->
<g id="edge17" class="edge">
<title>19&#45;&gt;16</title>
<path fill="none" stroke="#00ff00" stroke-width=".1497" d="M150.3533,-191.5457C144.2666,-181.6748 136.0032,-168.2739 129.0009,-156.9182"/>
<polygon fill="#00ff00" stroke="#00ff00" stroke-width=".1497" points="131.9491,-155.0309 123.7212,-148.3561 125.9908,-158.705 131.9491,-155.0309"/>
</g>
<!-- 731&#45;&gt;16 -->
<g id="edge23" class="edge">
<title>731&#45;&gt;16</title>
<path fill="none" stroke="#ff0000" stroke-width=".4122" stroke-dasharray="1,5" d="M78.7113,-189.4516C85.1437,-179.6858 93.4269,-167.1104 100.4597,-156.4332"/>
<polygon fill="#ff0000" stroke="#ff0000" stroke-width=".4122" points="103.4272,-158.2906 106.0051,-148.0142 97.5814,-154.4401 103.4272,-158.2906"/>
</g>
</g>
</svg>
